%TF.GenerationSoftware,KiCad,Pcbnew,9.0.7*%
%TF.CreationDate,2026-02-04T14:08:06+08:00*%
%TF.ProjectId,usb_led,7573625f-6c65-4642-9e6b-696361645f70,v1.0.0*%
%TF.SameCoordinates,Original*%
%TF.FileFunction,Copper,L2,Bot*%
%TF.FilePolarity,Positive*%
%FSLAX46Y46*%
G04 Gerber Fmt 4.6, Leading zero omitted, Abs format (unit mm)*
G04 Created by KiCad (PCBNEW 9.0.7) date 2026-02-04 14:08:06*
%MOMM*%
%LPD*%
G01*
G04 APERTURE LIST*
%TA.AperFunction,HeatsinkPad*%
%ADD10O,1.700000X1.100000*%
%TD*%
%TA.AperFunction,ViaPad*%
%ADD11C,1.000000*%
%TD*%
G04 APERTURE END LIST*
D10*
%TO.P,J1,S1,SHIELD*%
%TO.N,GND*%
X6175000Y10035000D03*
X2375000Y10035000D03*
X6175000Y1395000D03*
X2375000Y1395000D03*
%TD*%
D11*
%TO.N,GND*%
X14605000Y9525000D03*
X14605000Y1905000D03*
X2540000Y5715000D03*
X19685000Y1905000D03*
X19685000Y9525000D03*
X10795000Y5715000D03*
%TD*%
%TA.AperFunction,Conductor*%
%TO.N,GND*%
G36*
X1252251Y10909815D02*
G01*
X1298006Y10857011D01*
X1307950Y10787853D01*
X1278925Y10724297D01*
X1272893Y10717819D01*
X1259413Y10704340D01*
X1259410Y10704336D01*
X1144505Y10532369D01*
X1144500Y10532359D01*
X1065351Y10341277D01*
X1065350Y10341275D01*
X1054157Y10285000D01*
X1908012Y10285000D01*
X1890795Y10275060D01*
X1834940Y10219205D01*
X1795444Y10150796D01*
X1775000Y10074496D01*
X1775000Y9995504D01*
X1795444Y9919204D01*
X1834940Y9850795D01*
X1890795Y9794940D01*
X1908012Y9785000D01*
X1054157Y9785000D01*
X1065350Y9728726D01*
X1065351Y9728724D01*
X1144500Y9537642D01*
X1144505Y9537632D01*
X1259410Y9365665D01*
X1259413Y9365661D01*
X1405660Y9219414D01*
X1405664Y9219411D01*
X1577631Y9104506D01*
X1577641Y9104501D01*
X1768725Y9025351D01*
X1768733Y9025349D01*
X1971579Y8985001D01*
X1971583Y8985000D01*
X2125000Y8985000D01*
X2125000Y9735000D01*
X2625000Y9735000D01*
X2625000Y8985000D01*
X2778417Y8985000D01*
X2778420Y8985001D01*
X2981266Y9025349D01*
X2981274Y9025351D01*
X3172358Y9104501D01*
X3172368Y9104506D01*
X3344335Y9219411D01*
X3344339Y9219414D01*
X3490586Y9365661D01*
X3490589Y9365665D01*
X3605494Y9537632D01*
X3605499Y9537642D01*
X3684648Y9728724D01*
X3684649Y9728726D01*
X3695843Y9785000D01*
X2841988Y9785000D01*
X2859205Y9794940D01*
X2915060Y9850795D01*
X2954556Y9919204D01*
X2975000Y9995504D01*
X2975000Y10074496D01*
X2954556Y10150796D01*
X2915060Y10219205D01*
X2859205Y10275060D01*
X2841988Y10285000D01*
X3695843Y10285000D01*
X3684649Y10341275D01*
X3684648Y10341277D01*
X3605499Y10532359D01*
X3605494Y10532369D01*
X3490589Y10704336D01*
X3490586Y10704340D01*
X3477107Y10717819D01*
X3443622Y10779142D01*
X3448606Y10848834D01*
X3490478Y10904767D01*
X3555942Y10929184D01*
X3564788Y10929500D01*
X4985212Y10929500D01*
X5052251Y10909815D01*
X5098006Y10857011D01*
X5107950Y10787853D01*
X5078925Y10724297D01*
X5072893Y10717819D01*
X5059413Y10704340D01*
X5059410Y10704336D01*
X4944505Y10532369D01*
X4944500Y10532359D01*
X4865351Y10341277D01*
X4865350Y10341275D01*
X4854157Y10285000D01*
X5708012Y10285000D01*
X5690795Y10275060D01*
X5634940Y10219205D01*
X5595444Y10150796D01*
X5575000Y10074496D01*
X5575000Y9995504D01*
X5595444Y9919204D01*
X5634940Y9850795D01*
X5690795Y9794940D01*
X5708012Y9785000D01*
X4854157Y9785000D01*
X4865350Y9728726D01*
X4865351Y9728724D01*
X4944500Y9537642D01*
X4944505Y9537632D01*
X5059410Y9365665D01*
X5059413Y9365661D01*
X5205660Y9219414D01*
X5205664Y9219411D01*
X5377631Y9104506D01*
X5377641Y9104501D01*
X5568725Y9025351D01*
X5568733Y9025349D01*
X5771579Y8985001D01*
X5771583Y8985000D01*
X5925000Y8985000D01*
X5925000Y9735000D01*
X6425000Y9735000D01*
X6425000Y8985000D01*
X6578417Y8985000D01*
X6578420Y8985001D01*
X6781266Y9025349D01*
X6781274Y9025351D01*
X6972358Y9104501D01*
X6972368Y9104506D01*
X7144335Y9219411D01*
X7144339Y9219414D01*
X7290586Y9365661D01*
X7290589Y9365665D01*
X7405494Y9537632D01*
X7405499Y9537642D01*
X7484648Y9728724D01*
X7484649Y9728726D01*
X7495843Y9785000D01*
X6641988Y9785000D01*
X6659205Y9794940D01*
X6715060Y9850795D01*
X6754556Y9919204D01*
X6775000Y9995504D01*
X6775000Y10074496D01*
X6754556Y10150796D01*
X6715060Y10219205D01*
X6659205Y10275060D01*
X6641988Y10285000D01*
X7495843Y10285000D01*
X7484649Y10341275D01*
X7484648Y10341277D01*
X7405499Y10532359D01*
X7405494Y10532369D01*
X7290589Y10704336D01*
X7290586Y10704340D01*
X7277107Y10717819D01*
X7243622Y10779142D01*
X7248606Y10848834D01*
X7290478Y10904767D01*
X7355942Y10929184D01*
X7364788Y10929500D01*
X21159108Y10929500D01*
X21218038Y10929500D01*
X21231922Y10928720D01*
X21322266Y10918541D01*
X21349331Y10912364D01*
X21428540Y10884648D01*
X21453553Y10872602D01*
X21524606Y10827957D01*
X21546313Y10810645D01*
X21605644Y10751314D01*
X21622957Y10729605D01*
X21667600Y10658556D01*
X21679648Y10633538D01*
X21707362Y10554334D01*
X21713540Y10527265D01*
X21723720Y10436924D01*
X21724500Y10423039D01*
X21724500Y1006962D01*
X21723720Y993078D01*
X21723720Y993077D01*
X21713540Y902736D01*
X21707362Y875667D01*
X21679648Y796463D01*
X21667600Y771445D01*
X21622957Y700396D01*
X21605644Y678687D01*
X21546313Y619356D01*
X21524604Y602043D01*
X21453555Y557400D01*
X21428537Y545352D01*
X21349333Y517638D01*
X21322264Y511460D01*
X21242075Y502424D01*
X21231921Y501280D01*
X21218038Y500500D01*
X7364788Y500500D01*
X7297749Y520185D01*
X7251994Y572989D01*
X7242050Y642147D01*
X7271075Y705703D01*
X7277107Y712181D01*
X7290586Y725661D01*
X7290589Y725665D01*
X7405494Y897632D01*
X7405499Y897642D01*
X7484648Y1088724D01*
X7484649Y1088726D01*
X7495843Y1145000D01*
X6641988Y1145000D01*
X6659205Y1154940D01*
X6715060Y1210795D01*
X6754556Y1279204D01*
X6775000Y1355504D01*
X6775000Y1434496D01*
X6754556Y1510796D01*
X6715060Y1579205D01*
X6659205Y1635060D01*
X6641988Y1645000D01*
X7495843Y1645000D01*
X7484649Y1701275D01*
X7484648Y1701277D01*
X7405499Y1892359D01*
X7405494Y1892369D01*
X7290589Y2064336D01*
X7290586Y2064340D01*
X7144339Y2210587D01*
X7144335Y2210590D01*
X6972368Y2325495D01*
X6972358Y2325500D01*
X6781274Y2404650D01*
X6781266Y2404652D01*
X6578420Y2445000D01*
X6425000Y2445000D01*
X6425000Y1695000D01*
X5925000Y1695000D01*
X5925000Y2445000D01*
X5771579Y2445000D01*
X5568733Y2404652D01*
X5568725Y2404650D01*
X5377641Y2325500D01*
X5377631Y2325495D01*
X5205664Y2210590D01*
X5205660Y2210587D01*
X5059413Y2064340D01*
X5059410Y2064336D01*
X4944505Y1892369D01*
X4944500Y1892359D01*
X4865351Y1701277D01*
X4865350Y1701275D01*
X4854157Y1645000D01*
X5708012Y1645000D01*
X5690795Y1635060D01*
X5634940Y1579205D01*
X5595444Y1510796D01*
X5575000Y1434496D01*
X5575000Y1355504D01*
X5595444Y1279204D01*
X5634940Y1210795D01*
X5690795Y1154940D01*
X5708012Y1145000D01*
X4854157Y1145000D01*
X4865350Y1088726D01*
X4865351Y1088724D01*
X4944500Y897642D01*
X4944505Y897632D01*
X5059410Y725665D01*
X5059413Y725661D01*
X5072893Y712181D01*
X5106378Y650858D01*
X5101394Y581166D01*
X5059522Y525233D01*
X4994058Y500816D01*
X4985212Y500500D01*
X3564788Y500500D01*
X3497749Y520185D01*
X3451994Y572989D01*
X3442050Y642147D01*
X3471075Y705703D01*
X3477107Y712181D01*
X3490586Y725661D01*
X3490589Y725665D01*
X3605494Y897632D01*
X3605499Y897642D01*
X3684648Y1088724D01*
X3684649Y1088726D01*
X3695843Y1145000D01*
X2841988Y1145000D01*
X2859205Y1154940D01*
X2915060Y1210795D01*
X2954556Y1279204D01*
X2975000Y1355504D01*
X2975000Y1434496D01*
X2954556Y1510796D01*
X2915060Y1579205D01*
X2859205Y1635060D01*
X2841988Y1645000D01*
X3695843Y1645000D01*
X3684649Y1701275D01*
X3684648Y1701277D01*
X3605499Y1892359D01*
X3605494Y1892369D01*
X3490589Y2064336D01*
X3490586Y2064340D01*
X3344339Y2210587D01*
X3344335Y2210590D01*
X3172368Y2325495D01*
X3172358Y2325500D01*
X2981274Y2404650D01*
X2981266Y2404652D01*
X2778420Y2445000D01*
X2625000Y2445000D01*
X2625000Y1695000D01*
X2125000Y1695000D01*
X2125000Y2445000D01*
X1971579Y2445000D01*
X1768733Y2404652D01*
X1768725Y2404650D01*
X1577641Y2325500D01*
X1577631Y2325495D01*
X1405664Y2210590D01*
X1405660Y2210587D01*
X1259413Y2064340D01*
X1259410Y2064336D01*
X1144505Y1892369D01*
X1144500Y1892359D01*
X1065351Y1701277D01*
X1065350Y1701275D01*
X1054157Y1645000D01*
X1908012Y1645000D01*
X1890795Y1635060D01*
X1834940Y1579205D01*
X1795444Y1510796D01*
X1775000Y1434496D01*
X1775000Y1355504D01*
X1795444Y1279204D01*
X1834940Y1210795D01*
X1890795Y1154940D01*
X1908012Y1145000D01*
X1054157Y1145000D01*
X1065350Y1088726D01*
X1065351Y1088724D01*
X1144500Y897642D01*
X1144505Y897632D01*
X1259410Y725665D01*
X1259413Y725661D01*
X1272893Y712181D01*
X1283505Y692745D01*
X1298006Y676011D01*
X1299922Y662680D01*
X1306378Y650858D01*
X1304798Y628772D01*
X1307950Y606853D01*
X1302354Y594602D01*
X1301394Y581166D01*
X1288123Y563440D01*
X1278925Y543297D01*
X1267593Y536015D01*
X1259522Y525233D01*
X1238776Y517496D01*
X1220147Y505523D01*
X1198228Y502372D01*
X1194058Y500816D01*
X1185212Y500500D01*
X1006962Y500500D01*
X993078Y501280D01*
X980553Y502692D01*
X902735Y511460D01*
X875666Y517638D01*
X796462Y545352D01*
X771444Y557400D01*
X700395Y602043D01*
X678686Y619356D01*
X619355Y678687D01*
X602042Y700396D01*
X598707Y705703D01*
X557398Y771447D01*
X545351Y796463D01*
X517637Y875667D01*
X511459Y902737D01*
X501280Y993078D01*
X500500Y1006962D01*
X500500Y10423039D01*
X501280Y10436923D01*
X501280Y10436924D01*
X511460Y10527271D01*
X517635Y10554330D01*
X545353Y10633544D01*
X557396Y10658550D01*
X602046Y10729611D01*
X619351Y10751310D01*
X678690Y10810649D01*
X700389Y10827954D01*
X771450Y10872604D01*
X796456Y10884647D01*
X875670Y10912365D01*
X902733Y10918541D01*
X965419Y10925604D01*
X993079Y10928720D01*
X1006962Y10929500D01*
X1065892Y10929500D01*
X1185212Y10929500D01*
X1252251Y10909815D01*
G37*
%TD.AperFunction*%
%TD*%
M02*
