%TF.GenerationSoftware,KiCad,Pcbnew,9.0.7*%
%TF.CreationDate,2026-02-04T14:08:06+08:00*%
%TF.ProjectId,usb_led,7573625f-6c65-4642-9e6b-696361645f70,v1.0.0*%
%TF.SameCoordinates,Original*%
%TF.FileFunction,Legend,Bot*%
%TF.FilePolarity,Positive*%
%FSLAX46Y46*%
G04 Gerber Fmt 4.6, Leading zero omitted, Abs format (unit mm)*
G04 Created by KiCad (PCBNEW 9.0.7) date 2026-02-04 14:08:06*
%MOMM*%
%LPD*%
G01*
G04 APERTURE LIST*
%ADD10C,0.150000*%
%ADD11O,1.700000X1.100000*%
G04 APERTURE END LIST*
D10*
G36*
X10670124Y7825181D02*
G01*
X10381877Y7825181D01*
X10313361Y7859439D01*
X10282954Y7889847D01*
X10248696Y7958363D01*
X10248696Y8065810D01*
X10282954Y8134326D01*
X10309448Y8160820D01*
X10423961Y8198991D01*
X10670124Y8198991D01*
X10670124Y7825181D01*
G37*
G36*
X10670124Y8348991D02*
G01*
X10429496Y8348991D01*
X10360980Y8383249D01*
X10330573Y8413656D01*
X10296315Y8482172D01*
X10296315Y8542000D01*
X10330573Y8610516D01*
X10360980Y8640923D01*
X10429496Y8675181D01*
X10670124Y8675181D01*
X10670124Y8348991D01*
G37*
G36*
X18193934Y7825181D02*
G01*
X18043009Y7825181D01*
X17928496Y7863352D01*
X17854383Y7937466D01*
X17815889Y8014453D01*
X17772506Y8187987D01*
X17772506Y8312376D01*
X17815889Y8485910D01*
X17854383Y8562897D01*
X17928496Y8637010D01*
X18043009Y8675181D01*
X18193934Y8675181D01*
X18193934Y7825181D01*
G37*
G36*
X20169331Y7564070D02*
G01*
X7750931Y7564070D01*
X7750931Y8669574D01*
X7862042Y8669574D01*
X7862042Y8640312D01*
X7873241Y8613275D01*
X7893933Y8592583D01*
X7920970Y8581384D01*
X7950232Y8581384D01*
X7977269Y8592583D01*
X7988634Y8601910D01*
X8023734Y8637010D01*
X8138247Y8675181D01*
X8209145Y8675181D01*
X8323658Y8637010D01*
X8397771Y8562897D01*
X8436264Y8485910D01*
X8479648Y8312376D01*
X8479648Y8187987D01*
X8436264Y8014453D01*
X8397770Y7937466D01*
X8323658Y7863353D01*
X8209145Y7825181D01*
X8138247Y7825181D01*
X8023734Y7863352D01*
X7988635Y7898452D01*
X7977269Y7907780D01*
X7950233Y7918979D01*
X7920970Y7918979D01*
X7893934Y7907781D01*
X7873241Y7887088D01*
X7862042Y7860052D01*
X7862042Y7830789D01*
X7873240Y7803753D01*
X7882567Y7792388D01*
X7930186Y7744768D01*
X7941552Y7735440D01*
X7944040Y7734410D01*
X7946077Y7732643D01*
X7959503Y7726649D01*
X8102359Y7679030D01*
X8109614Y7677381D01*
X8111445Y7676622D01*
X8114098Y7676361D01*
X8116696Y7675770D01*
X8118670Y7675911D01*
X8126077Y7675181D01*
X8221315Y7675181D01*
X8228720Y7675911D01*
X8230695Y7675770D01*
X8233292Y7676361D01*
X8235947Y7676622D01*
X8237778Y7677381D01*
X8245032Y7679030D01*
X8387889Y7726649D01*
X8401314Y7732643D01*
X8403349Y7734409D01*
X8405840Y7735440D01*
X8417205Y7744767D01*
X8512444Y7840007D01*
X8517161Y7845756D01*
X8518660Y7847055D01*
X8520081Y7849314D01*
X8521771Y7851372D01*
X8522528Y7853202D01*
X8526492Y7859498D01*
X8574111Y7954736D01*
X8574520Y7955806D01*
X8574843Y7956241D01*
X8577035Y7962378D01*
X8579366Y7968467D01*
X8579404Y7969008D01*
X8579790Y7970087D01*
X8623710Y8145766D01*
X8909661Y8145766D01*
X8909661Y8116502D01*
X8920860Y8089466D01*
X8941552Y8068774D01*
X8968588Y8057575D01*
X8983220Y8056134D01*
X9745124Y8056134D01*
X9759756Y8057575D01*
X9786792Y8068774D01*
X9801533Y8083515D01*
X10098696Y8083515D01*
X10098696Y7940658D01*
X10100137Y7926026D01*
X10101168Y7923537D01*
X10101359Y7920849D01*
X10106614Y7907117D01*
X10154233Y7811879D01*
X10158196Y7805583D01*
X10158954Y7803753D01*
X10160643Y7801695D01*
X10162065Y7799436D01*
X10163563Y7798137D01*
X10168281Y7792388D01*
X10215900Y7744768D01*
X10221649Y7740050D01*
X10222950Y7738550D01*
X10225209Y7737128D01*
X10227266Y7735440D01*
X10229093Y7734683D01*
X10235393Y7730718D01*
X10330631Y7683099D01*
X10344362Y7677844D01*
X10347051Y7677653D01*
X10349540Y7676622D01*
X10364172Y7675181D01*
X10745124Y7675181D01*
X10759756Y7676622D01*
X10786792Y7687821D01*
X10807484Y7708513D01*
X10818683Y7735549D01*
X10820124Y7750181D01*
X10820124Y8035896D01*
X11098696Y8035896D01*
X11098696Y7940658D01*
X11100137Y7926026D01*
X11101168Y7923537D01*
X11101359Y7920849D01*
X11106614Y7907117D01*
X11154233Y7811879D01*
X11158196Y7805583D01*
X11158954Y7803753D01*
X11160643Y7801695D01*
X11162065Y7799436D01*
X11163563Y7798137D01*
X11168281Y7792388D01*
X11215900Y7744768D01*
X11221649Y7740050D01*
X11222950Y7738550D01*
X11225209Y7737128D01*
X11227266Y7735440D01*
X11229093Y7734683D01*
X11235393Y7730718D01*
X11330631Y7683099D01*
X11344362Y7677844D01*
X11347051Y7677653D01*
X11349540Y7676622D01*
X11364172Y7675181D01*
X11602267Y7675181D01*
X11609672Y7675911D01*
X11611647Y7675770D01*
X11614244Y7676361D01*
X11616899Y7676622D01*
X11618730Y7677381D01*
X11625984Y7679030D01*
X11768841Y7726649D01*
X11782266Y7732643D01*
X11804373Y7751817D01*
X11817460Y7777990D01*
X11819535Y7807180D01*
X11810281Y7834942D01*
X11791107Y7857050D01*
X11764933Y7870136D01*
X11735743Y7872211D01*
X11721406Y7868951D01*
X11590097Y7825181D01*
X11381877Y7825181D01*
X11313361Y7859439D01*
X11282954Y7889847D01*
X11248696Y7958363D01*
X11248696Y8018191D01*
X11282954Y8086707D01*
X11313361Y8117114D01*
X11390348Y8155608D01*
X11572838Y8201230D01*
X11573917Y8201616D01*
X11574457Y8201654D01*
X11580538Y8203982D01*
X11586684Y8206177D01*
X11587119Y8206500D01*
X11588189Y8206909D01*
X11683427Y8254528D01*
X11689726Y8258493D01*
X11691554Y8259250D01*
X11693610Y8260939D01*
X11695870Y8262360D01*
X11697169Y8263859D01*
X11702919Y8268577D01*
X11750538Y8316196D01*
X11755256Y8321946D01*
X11756755Y8323245D01*
X11758176Y8325505D01*
X11759865Y8327561D01*
X11760622Y8329389D01*
X11764587Y8335688D01*
X11812206Y8430926D01*
X11817461Y8444657D01*
X11817652Y8447347D01*
X11818683Y8449835D01*
X11820124Y8464467D01*
X11820124Y8559705D01*
X11818683Y8574337D01*
X11817652Y8576826D01*
X11817461Y8579515D01*
X11812206Y8593246D01*
X11764587Y8688484D01*
X11760622Y8694784D01*
X11759865Y8696611D01*
X11758176Y8698668D01*
X11756755Y8700927D01*
X11755256Y8702227D01*
X11750538Y8707976D01*
X11708333Y8750181D01*
X12098696Y8750181D01*
X12098696Y7940658D01*
X12100137Y7926026D01*
X12101168Y7923537D01*
X12101359Y7920849D01*
X12106614Y7907117D01*
X12154233Y7811879D01*
X12158196Y7805583D01*
X12158954Y7803753D01*
X12160643Y7801695D01*
X12162065Y7799436D01*
X12163563Y7798137D01*
X12168281Y7792388D01*
X12215900Y7744768D01*
X12221649Y7740050D01*
X12222950Y7738550D01*
X12225209Y7737128D01*
X12227266Y7735440D01*
X12229093Y7734683D01*
X12235393Y7730718D01*
X12330631Y7683099D01*
X12344362Y7677844D01*
X12347051Y7677653D01*
X12349540Y7676622D01*
X12364172Y7675181D01*
X12554648Y7675181D01*
X12569280Y7676622D01*
X12571769Y7677654D01*
X12574457Y7677844D01*
X12588189Y7683099D01*
X12683427Y7730718D01*
X12689726Y7734683D01*
X12691554Y7735440D01*
X12693610Y7737128D01*
X12695870Y7738550D01*
X12697170Y7740050D01*
X12702920Y7744768D01*
X12750538Y7792387D01*
X12755256Y7798137D01*
X12756755Y7799436D01*
X12758176Y7801695D01*
X12759866Y7803753D01*
X12760623Y7805583D01*
X12764587Y7811879D01*
X12812206Y7907117D01*
X12817461Y7920848D01*
X12817652Y7923538D01*
X12818683Y7926026D01*
X12820124Y7940658D01*
X12820124Y8273991D01*
X13908220Y8273991D01*
X13908220Y7750181D01*
X13909661Y7735549D01*
X13920860Y7708513D01*
X13941552Y7687821D01*
X13968588Y7676622D01*
X13997852Y7676622D01*
X14024888Y7687821D01*
X14045580Y7708513D01*
X14056779Y7735549D01*
X14058220Y7750181D01*
X14058220Y8256286D01*
X14086740Y8313328D01*
X14143782Y8341848D01*
X14251229Y8341848D01*
X14319745Y8307590D01*
X14336791Y8290544D01*
X14336791Y7750181D01*
X14338232Y7735549D01*
X14349431Y7708513D01*
X14370123Y7687821D01*
X14397159Y7676622D01*
X14426423Y7676622D01*
X14453459Y7687821D01*
X14474151Y7708513D01*
X14485350Y7735549D01*
X14486791Y7750181D01*
X14486791Y8431480D01*
X14671566Y8431480D01*
X14671566Y8402216D01*
X14682765Y8375180D01*
X14703457Y8354488D01*
X14730493Y8343289D01*
X14745125Y8341848D01*
X14908220Y8341848D01*
X14908220Y7910744D01*
X14879699Y7853702D01*
X14822658Y7825181D01*
X14745125Y7825181D01*
X14730493Y7823740D01*
X14703457Y7812541D01*
X14682765Y7791849D01*
X14671566Y7764813D01*
X14671566Y7735549D01*
X14682765Y7708513D01*
X14703457Y7687821D01*
X14730493Y7676622D01*
X14745125Y7675181D01*
X14840363Y7675181D01*
X14854995Y7676622D01*
X14857484Y7677654D01*
X14860172Y7677844D01*
X14873904Y7683099D01*
X14969142Y7730718D01*
X14971589Y7732259D01*
X14972743Y7732643D01*
X14974179Y7733889D01*
X14981585Y7738550D01*
X14987746Y7745655D01*
X14994851Y7751816D01*
X14999512Y7759222D01*
X15000758Y7760658D01*
X15001142Y7761812D01*
X15002683Y7764259D01*
X15050302Y7859498D01*
X15055557Y7873230D01*
X15055747Y7875918D01*
X15056779Y7878407D01*
X15058220Y7893039D01*
X15058220Y8341848D01*
X15126077Y8341848D01*
X15140709Y8343289D01*
X15167745Y8354488D01*
X15188437Y8375180D01*
X15199636Y8402216D01*
X15199636Y8416848D01*
X15384410Y8416848D01*
X15384410Y7750181D01*
X15385851Y7735549D01*
X15397050Y7708513D01*
X15417742Y7687821D01*
X15444778Y7676622D01*
X15474042Y7676622D01*
X15501078Y7687821D01*
X15521770Y7708513D01*
X15532969Y7735549D01*
X15534410Y7750181D01*
X15534410Y8410709D01*
X15765615Y8410709D01*
X15768249Y8396244D01*
X15958725Y7729577D01*
X15964130Y7715904D01*
X15967105Y7712157D01*
X15968991Y7707756D01*
X15976128Y7700791D01*
X15982325Y7692985D01*
X15986506Y7690662D01*
X15989934Y7687317D01*
X15999193Y7683614D01*
X16007906Y7678773D01*
X16012660Y7678227D01*
X16017105Y7676449D01*
X16027075Y7676571D01*
X16036978Y7675433D01*
X16041579Y7676748D01*
X16046367Y7676806D01*
X16055532Y7680735D01*
X16065116Y7683472D01*
X16068863Y7686448D01*
X16073264Y7688333D01*
X16080229Y7695471D01*
X16088035Y7701667D01*
X16090358Y7705849D01*
X16093703Y7709276D01*
X16100475Y7722327D01*
X16221315Y8024428D01*
X16342155Y7722327D01*
X16348927Y7709277D01*
X16352270Y7705852D01*
X16354595Y7701667D01*
X16362404Y7695468D01*
X16369366Y7688334D01*
X16373764Y7686449D01*
X16377514Y7683472D01*
X16387099Y7680734D01*
X16396263Y7676806D01*
X16401050Y7676748D01*
X16405652Y7675433D01*
X16415554Y7676571D01*
X16425525Y7676449D01*
X16429968Y7678227D01*
X16434724Y7678773D01*
X16443442Y7683617D01*
X16452695Y7687318D01*
X16456119Y7690660D01*
X16460305Y7692985D01*
X16466503Y7700794D01*
X16473639Y7707756D01*
X16475524Y7712157D01*
X16478500Y7715904D01*
X16483905Y7729577D01*
X16653057Y8321610D01*
X17622506Y8321610D01*
X17622506Y8178753D01*
X17622757Y8176200D01*
X17622595Y8175107D01*
X17623404Y8169634D01*
X17623947Y8164121D01*
X17624369Y8163100D01*
X17624745Y8160563D01*
X17672364Y7970087D01*
X17672749Y7969008D01*
X17672788Y7968468D01*
X17675115Y7962387D01*
X17677311Y7956241D01*
X17677633Y7955806D01*
X17678043Y7954736D01*
X17725662Y7859498D01*
X17729625Y7853202D01*
X17730383Y7851372D01*
X17732072Y7849314D01*
X17733494Y7847055D01*
X17734992Y7845756D01*
X17739711Y7840006D01*
X17834949Y7744767D01*
X17846314Y7735439D01*
X17848804Y7734408D01*
X17850839Y7732643D01*
X17864265Y7726649D01*
X18007121Y7679030D01*
X18014376Y7677381D01*
X18016207Y7676622D01*
X18018860Y7676361D01*
X18021458Y7675770D01*
X18023432Y7675911D01*
X18030839Y7675181D01*
X18268934Y7675181D01*
X18283566Y7676622D01*
X18310602Y7687821D01*
X18331294Y7708513D01*
X18342493Y7735549D01*
X18343934Y7750181D01*
X18343934Y8750181D01*
X18342493Y8764813D01*
X18623947Y8764813D01*
X18623947Y8735549D01*
X18635146Y8708513D01*
X18655838Y8687821D01*
X18682874Y8676622D01*
X18697506Y8675181D01*
X19098696Y8675181D01*
X19098696Y8348991D01*
X18840363Y8348991D01*
X18825731Y8347550D01*
X18798695Y8336351D01*
X18778003Y8315659D01*
X18766804Y8288623D01*
X18766804Y8259359D01*
X18778003Y8232323D01*
X18798695Y8211631D01*
X18825731Y8200432D01*
X18840363Y8198991D01*
X19098696Y8198991D01*
X19098696Y7825181D01*
X18697506Y7825181D01*
X18682874Y7823740D01*
X18655838Y7812541D01*
X18635146Y7791849D01*
X18623947Y7764813D01*
X18623947Y7735549D01*
X18635146Y7708513D01*
X18655838Y7687821D01*
X18682874Y7676622D01*
X18697506Y7675181D01*
X19173696Y7675181D01*
X19188328Y7676622D01*
X19215364Y7687821D01*
X19236056Y7708513D01*
X19247255Y7735549D01*
X19248696Y7750181D01*
X19248696Y7764813D01*
X19433471Y7764813D01*
X19433471Y7735549D01*
X19444670Y7708513D01*
X19465362Y7687821D01*
X19492398Y7676622D01*
X19507030Y7675181D01*
X19983220Y7675181D01*
X19997852Y7676622D01*
X20024888Y7687821D01*
X20045580Y7708513D01*
X20056779Y7735549D01*
X20058220Y7750181D01*
X20058220Y8750181D01*
X20056779Y8764813D01*
X20045580Y8791849D01*
X20024888Y8812541D01*
X19997852Y8823740D01*
X19968588Y8823740D01*
X19941552Y8812541D01*
X19920860Y8791849D01*
X19909661Y8764813D01*
X19908220Y8750181D01*
X19908220Y7825181D01*
X19507030Y7825181D01*
X19492398Y7823740D01*
X19465362Y7812541D01*
X19444670Y7791849D01*
X19433471Y7764813D01*
X19248696Y7764813D01*
X19248696Y8750181D01*
X19247255Y8764813D01*
X19236056Y8791849D01*
X19215364Y8812541D01*
X19188328Y8823740D01*
X19173696Y8825181D01*
X18697506Y8825181D01*
X18682874Y8823740D01*
X18655838Y8812541D01*
X18635146Y8791849D01*
X18623947Y8764813D01*
X18342493Y8764813D01*
X18331294Y8791849D01*
X18310602Y8812541D01*
X18283566Y8823740D01*
X18268934Y8825181D01*
X18030839Y8825181D01*
X18023432Y8824452D01*
X18021458Y8824592D01*
X18018860Y8824002D01*
X18016207Y8823740D01*
X18014376Y8822982D01*
X18007121Y8821332D01*
X17864265Y8773713D01*
X17850839Y8767719D01*
X17848804Y8765955D01*
X17846314Y8764923D01*
X17834949Y8755595D01*
X17739711Y8660357D01*
X17734992Y8654608D01*
X17733494Y8653308D01*
X17732072Y8651049D01*
X17730384Y8648992D01*
X17729626Y8647165D01*
X17725662Y8640865D01*
X17678043Y8545627D01*
X17677633Y8544558D01*
X17677311Y8544122D01*
X17675115Y8537977D01*
X17672788Y8531895D01*
X17672749Y8531356D01*
X17672364Y8530276D01*
X17624745Y8339800D01*
X17624369Y8337264D01*
X17623947Y8336242D01*
X17623404Y8330730D01*
X17622595Y8325256D01*
X17622757Y8324164D01*
X17622506Y8321610D01*
X16653057Y8321610D01*
X16674381Y8396244D01*
X16677015Y8410709D01*
X16673675Y8439781D01*
X16659463Y8465362D01*
X16636544Y8483557D01*
X16608406Y8491596D01*
X16579334Y8488256D01*
X16553753Y8474044D01*
X16535558Y8451125D01*
X16530153Y8437452D01*
X16399947Y7981734D01*
X16290951Y8254226D01*
X16284179Y8267277D01*
X16283528Y8267944D01*
X16283163Y8268797D01*
X16273352Y8278371D01*
X16263740Y8288220D01*
X16262882Y8288588D01*
X16262219Y8289235D01*
X16249487Y8294329D01*
X16236843Y8299747D01*
X16235913Y8299759D01*
X16235049Y8300104D01*
X16221315Y8299937D01*
X16207581Y8300104D01*
X16206716Y8299759D01*
X16205787Y8299747D01*
X16193185Y8294346D01*
X16180410Y8289236D01*
X16179742Y8288585D01*
X16178890Y8288219D01*
X16169317Y8278411D01*
X16159467Y8268797D01*
X16159100Y8267942D01*
X16158451Y8267276D01*
X16151679Y8254226D01*
X16042682Y7981734D01*
X15912477Y8437452D01*
X15907072Y8451125D01*
X15888877Y8474044D01*
X15863296Y8488256D01*
X15834224Y8491596D01*
X15806086Y8483557D01*
X15783167Y8465362D01*
X15768955Y8439781D01*
X15765615Y8410709D01*
X15534410Y8410709D01*
X15534410Y8416848D01*
X15532969Y8431480D01*
X15521770Y8458516D01*
X15501078Y8479208D01*
X15474042Y8490407D01*
X15444778Y8490407D01*
X15417742Y8479208D01*
X15397050Y8458516D01*
X15385851Y8431480D01*
X15384410Y8416848D01*
X15199636Y8416848D01*
X15199636Y8431480D01*
X15188437Y8458516D01*
X15167745Y8479208D01*
X15140709Y8490407D01*
X15126077Y8491848D01*
X15058220Y8491848D01*
X15058220Y8717193D01*
X15338232Y8717193D01*
X15338232Y8687931D01*
X15349431Y8660894D01*
X15358758Y8649529D01*
X15406377Y8601910D01*
X15417742Y8592583D01*
X15444778Y8581384D01*
X15444779Y8581384D01*
X15474041Y8581384D01*
X15474042Y8581384D01*
X15501078Y8592583D01*
X15512443Y8601910D01*
X15560062Y8649529D01*
X15569389Y8660894D01*
X15580588Y8687930D01*
X15580588Y8717193D01*
X15575130Y8730371D01*
X15569389Y8744230D01*
X15560062Y8755595D01*
X15512443Y8803214D01*
X15501078Y8812541D01*
X15474042Y8823740D01*
X15474041Y8823740D01*
X15444778Y8823740D01*
X15417742Y8812541D01*
X15406377Y8803214D01*
X15358758Y8755595D01*
X15349431Y8744230D01*
X15338232Y8717193D01*
X15058220Y8717193D01*
X15058220Y8750181D01*
X15056779Y8764813D01*
X15045580Y8791849D01*
X15024888Y8812541D01*
X14997852Y8823740D01*
X14968588Y8823740D01*
X14941552Y8812541D01*
X14920860Y8791849D01*
X14909661Y8764813D01*
X14908220Y8750181D01*
X14908220Y8491848D01*
X14745125Y8491848D01*
X14730493Y8490407D01*
X14703457Y8479208D01*
X14682765Y8458516D01*
X14671566Y8431480D01*
X14486791Y8431480D01*
X14486791Y8750181D01*
X14485350Y8764813D01*
X14474151Y8791849D01*
X14453459Y8812541D01*
X14426423Y8823740D01*
X14397159Y8823740D01*
X14370123Y8812541D01*
X14349431Y8791849D01*
X14338232Y8764813D01*
X14336791Y8750181D01*
X14336791Y8466772D01*
X14302475Y8483930D01*
X14288743Y8489185D01*
X14286055Y8489376D01*
X14283566Y8490407D01*
X14268934Y8491848D01*
X14126077Y8491848D01*
X14111445Y8490407D01*
X14108956Y8489377D01*
X14106267Y8489185D01*
X14092536Y8483930D01*
X13997298Y8436311D01*
X13994850Y8434771D01*
X13993697Y8434386D01*
X13992260Y8433141D01*
X13984855Y8428479D01*
X13978693Y8421375D01*
X13971589Y8415213D01*
X13966927Y8407808D01*
X13965682Y8406371D01*
X13965297Y8405218D01*
X13963757Y8402770D01*
X13916138Y8307532D01*
X13910883Y8293800D01*
X13910692Y8291113D01*
X13909661Y8288623D01*
X13908220Y8273991D01*
X12820124Y8273991D01*
X12820124Y8750181D01*
X12818683Y8764813D01*
X12807484Y8791849D01*
X12786792Y8812541D01*
X12759756Y8823740D01*
X12730492Y8823740D01*
X12703456Y8812541D01*
X12682764Y8791849D01*
X12671565Y8764813D01*
X12670124Y8750181D01*
X12670124Y7958363D01*
X12635865Y7889847D01*
X12605458Y7859439D01*
X12536943Y7825181D01*
X12381877Y7825181D01*
X12313361Y7859439D01*
X12282954Y7889847D01*
X12248696Y7958363D01*
X12248696Y8750181D01*
X12247255Y8764813D01*
X12236056Y8791849D01*
X12215364Y8812541D01*
X12188328Y8823740D01*
X12159064Y8823740D01*
X12132028Y8812541D01*
X12111336Y8791849D01*
X12100137Y8764813D01*
X12098696Y8750181D01*
X11708333Y8750181D01*
X11702919Y8755595D01*
X11697169Y8760314D01*
X11695870Y8761812D01*
X11693610Y8763234D01*
X11691554Y8764922D01*
X11689726Y8765680D01*
X11683427Y8769644D01*
X11588189Y8817263D01*
X11574457Y8822518D01*
X11571769Y8822709D01*
X11569280Y8823740D01*
X11554648Y8825181D01*
X11316553Y8825181D01*
X11309146Y8824452D01*
X11307172Y8824592D01*
X11304574Y8824002D01*
X11301921Y8823740D01*
X11300090Y8822982D01*
X11292835Y8821332D01*
X11149979Y8773713D01*
X11136553Y8767719D01*
X11114446Y8748545D01*
X11101360Y8722372D01*
X11099285Y8693182D01*
X11108539Y8665419D01*
X11127713Y8643312D01*
X11153886Y8630226D01*
X11183076Y8628151D01*
X11197413Y8631411D01*
X11328723Y8675181D01*
X11536943Y8675181D01*
X11605459Y8640923D01*
X11635866Y8610516D01*
X11670124Y8542000D01*
X11670124Y8482172D01*
X11635866Y8413656D01*
X11605459Y8383249D01*
X11528472Y8344756D01*
X11345982Y8299133D01*
X11344902Y8298748D01*
X11344362Y8298709D01*
X11338272Y8296379D01*
X11332136Y8294186D01*
X11331700Y8293864D01*
X11330631Y8293454D01*
X11235393Y8245835D01*
X11229093Y8241871D01*
X11227266Y8241113D01*
X11225209Y8239425D01*
X11222950Y8238003D01*
X11221650Y8236505D01*
X11215901Y8231786D01*
X11168282Y8184167D01*
X11163563Y8178418D01*
X11162065Y8177118D01*
X11160643Y8174859D01*
X11158955Y8172802D01*
X11158197Y8170975D01*
X11154233Y8164675D01*
X11106614Y8069437D01*
X11101359Y8055705D01*
X11101168Y8053018D01*
X11100137Y8050528D01*
X11098696Y8035896D01*
X10820124Y8035896D01*
X10820124Y8750181D01*
X10818683Y8764813D01*
X10807484Y8791849D01*
X10786792Y8812541D01*
X10759756Y8823740D01*
X10745124Y8825181D01*
X10411791Y8825181D01*
X10397159Y8823740D01*
X10394670Y8822710D01*
X10391981Y8822518D01*
X10378250Y8817263D01*
X10283012Y8769644D01*
X10276712Y8765680D01*
X10274885Y8764922D01*
X10272828Y8763234D01*
X10270569Y8761812D01*
X10269269Y8760314D01*
X10263520Y8755595D01*
X10215901Y8707976D01*
X10211182Y8702227D01*
X10209684Y8700927D01*
X10208262Y8698668D01*
X10206574Y8696611D01*
X10205816Y8694784D01*
X10201852Y8688484D01*
X10154233Y8593246D01*
X10148978Y8579514D01*
X10148787Y8576827D01*
X10147756Y8574337D01*
X10146315Y8559705D01*
X10146315Y8464467D01*
X10147756Y8449835D01*
X10148787Y8447346D01*
X10148978Y8444658D01*
X10154233Y8430926D01*
X10201852Y8335688D01*
X10205816Y8329389D01*
X10206574Y8327561D01*
X10208262Y8325505D01*
X10209684Y8323245D01*
X10211182Y8321946D01*
X10215901Y8316196D01*
X10237858Y8294239D01*
X10231791Y8291529D01*
X10229754Y8289763D01*
X10227266Y8288732D01*
X10215901Y8279405D01*
X10168282Y8231786D01*
X10163563Y8226037D01*
X10162065Y8224737D01*
X10160643Y8222478D01*
X10158955Y8220421D01*
X10158197Y8218594D01*
X10154233Y8212294D01*
X10106614Y8117056D01*
X10101359Y8103324D01*
X10101168Y8100637D01*
X10100137Y8098147D01*
X10098696Y8083515D01*
X9801533Y8083515D01*
X9807484Y8089466D01*
X9818683Y8116502D01*
X9818683Y8145766D01*
X9807484Y8172802D01*
X9786792Y8193494D01*
X9759756Y8204693D01*
X9745124Y8206134D01*
X8983220Y8206134D01*
X8968588Y8204693D01*
X8941552Y8193494D01*
X8920860Y8172802D01*
X8909661Y8145766D01*
X8623710Y8145766D01*
X8627409Y8160563D01*
X8627784Y8163100D01*
X8628207Y8164121D01*
X8628749Y8169634D01*
X8629559Y8175107D01*
X8629396Y8176200D01*
X8629648Y8178753D01*
X8629648Y8321610D01*
X8629396Y8324164D01*
X8629559Y8325256D01*
X8628749Y8330730D01*
X8628207Y8336242D01*
X8627784Y8337264D01*
X8627409Y8339800D01*
X8579790Y8530276D01*
X8579404Y8531356D01*
X8579366Y8531896D01*
X8577035Y8537986D01*
X8574843Y8544122D01*
X8574520Y8544558D01*
X8574111Y8545627D01*
X8526492Y8640865D01*
X8522529Y8647160D01*
X8521771Y8648992D01*
X8520079Y8651054D01*
X8518660Y8653308D01*
X8517163Y8654607D01*
X8512443Y8660357D01*
X8417205Y8755595D01*
X8405840Y8764922D01*
X8403349Y8765954D01*
X8401314Y8767719D01*
X8387889Y8773713D01*
X8245032Y8821332D01*
X8237778Y8822982D01*
X8235947Y8823740D01*
X8233292Y8824002D01*
X8230695Y8824592D01*
X8228720Y8824452D01*
X8221315Y8825181D01*
X8126077Y8825181D01*
X8118670Y8824452D01*
X8116696Y8824592D01*
X8114098Y8824002D01*
X8111445Y8823740D01*
X8109614Y8822982D01*
X8102359Y8821332D01*
X7959503Y8773713D01*
X7946077Y8767719D01*
X7944040Y8765953D01*
X7941552Y8764922D01*
X7930187Y8755595D01*
X7882568Y8707976D01*
X7873241Y8696611D01*
X7862042Y8669574D01*
X7750931Y8669574D01*
X7750931Y8936292D01*
X20169331Y8936292D01*
X20169331Y7564070D01*
G37*
X19983220Y5945181D02*
X19983220Y6945181D01*
X19507030Y6611848D02*
X19507030Y5945181D01*
X19507030Y6516610D02*
X19459411Y6564229D01*
X19459411Y6564229D02*
X19364173Y6611848D01*
X19364173Y6611848D02*
X19221316Y6611848D01*
X19221316Y6611848D02*
X19126078Y6564229D01*
X19126078Y6564229D02*
X19078459Y6468991D01*
X19078459Y6468991D02*
X19078459Y5945181D01*
X18745125Y6611848D02*
X18364173Y6611848D01*
X18602268Y6945181D02*
X18602268Y6088039D01*
X18602268Y6088039D02*
X18554649Y5992800D01*
X18554649Y5992800D02*
X18459411Y5945181D01*
X18459411Y5945181D02*
X18364173Y5945181D01*
X18030839Y5945181D02*
X18030839Y6611848D01*
X18030839Y6421372D02*
X17983220Y6516610D01*
X17983220Y6516610D02*
X17935601Y6564229D01*
X17935601Y6564229D02*
X17840363Y6611848D01*
X17840363Y6611848D02*
X17745125Y6611848D01*
X17268934Y5945181D02*
X17364172Y5992800D01*
X17364172Y5992800D02*
X17411791Y6040420D01*
X17411791Y6040420D02*
X17459410Y6135658D01*
X17459410Y6135658D02*
X17459410Y6421372D01*
X17459410Y6421372D02*
X17411791Y6516610D01*
X17411791Y6516610D02*
X17364172Y6564229D01*
X17364172Y6564229D02*
X17268934Y6611848D01*
X17268934Y6611848D02*
X17126077Y6611848D01*
X17126077Y6611848D02*
X17030839Y6564229D01*
X17030839Y6564229D02*
X16983220Y6516610D01*
X16983220Y6516610D02*
X16935601Y6421372D01*
X16935601Y6421372D02*
X16935601Y6135658D01*
X16935601Y6135658D02*
X16983220Y6040420D01*
X16983220Y6040420D02*
X17030839Y5992800D01*
X17030839Y5992800D02*
X17126077Y5945181D01*
X17126077Y5945181D02*
X17268934Y5945181D01*
X15887981Y6611848D02*
X15507029Y6611848D01*
X15745124Y6945181D02*
X15745124Y6088039D01*
X15745124Y6088039D02*
X15697505Y5992800D01*
X15697505Y5992800D02*
X15602267Y5945181D01*
X15602267Y5945181D02*
X15507029Y5945181D01*
X15030838Y5945181D02*
X15126076Y5992800D01*
X15126076Y5992800D02*
X15173695Y6040420D01*
X15173695Y6040420D02*
X15221314Y6135658D01*
X15221314Y6135658D02*
X15221314Y6421372D01*
X15221314Y6421372D02*
X15173695Y6516610D01*
X15173695Y6516610D02*
X15126076Y6564229D01*
X15126076Y6564229D02*
X15030838Y6611848D01*
X15030838Y6611848D02*
X14887981Y6611848D01*
X14887981Y6611848D02*
X14792743Y6564229D01*
X14792743Y6564229D02*
X14745124Y6516610D01*
X14745124Y6516610D02*
X14697505Y6421372D01*
X14697505Y6421372D02*
X14697505Y6135658D01*
X14697505Y6135658D02*
X14745124Y6040420D01*
X14745124Y6040420D02*
X14792743Y5992800D01*
X14792743Y5992800D02*
X14887981Y5945181D01*
X14887981Y5945181D02*
X15030838Y5945181D01*
X13507028Y5945181D02*
X13507028Y6945181D01*
X13507028Y6945181D02*
X13126076Y6945181D01*
X13126076Y6945181D02*
X13030838Y6897562D01*
X13030838Y6897562D02*
X12983219Y6849943D01*
X12983219Y6849943D02*
X12935600Y6754705D01*
X12935600Y6754705D02*
X12935600Y6611848D01*
X12935600Y6611848D02*
X12983219Y6516610D01*
X12983219Y6516610D02*
X13030838Y6468991D01*
X13030838Y6468991D02*
X13126076Y6421372D01*
X13126076Y6421372D02*
X13507028Y6421372D01*
X11935600Y6040420D02*
X11983219Y5992800D01*
X11983219Y5992800D02*
X12126076Y5945181D01*
X12126076Y5945181D02*
X12221314Y5945181D01*
X12221314Y5945181D02*
X12364171Y5992800D01*
X12364171Y5992800D02*
X12459409Y6088039D01*
X12459409Y6088039D02*
X12507028Y6183277D01*
X12507028Y6183277D02*
X12554647Y6373753D01*
X12554647Y6373753D02*
X12554647Y6516610D01*
X12554647Y6516610D02*
X12507028Y6707086D01*
X12507028Y6707086D02*
X12459409Y6802324D01*
X12459409Y6802324D02*
X12364171Y6897562D01*
X12364171Y6897562D02*
X12221314Y6945181D01*
X12221314Y6945181D02*
X12126076Y6945181D01*
X12126076Y6945181D02*
X11983219Y6897562D01*
X11983219Y6897562D02*
X11935600Y6849943D01*
X11173695Y6468991D02*
X11030838Y6421372D01*
X11030838Y6421372D02*
X10983219Y6373753D01*
X10983219Y6373753D02*
X10935600Y6278515D01*
X10935600Y6278515D02*
X10935600Y6135658D01*
X10935600Y6135658D02*
X10983219Y6040420D01*
X10983219Y6040420D02*
X11030838Y5992800D01*
X11030838Y5992800D02*
X11126076Y5945181D01*
X11126076Y5945181D02*
X11507028Y5945181D01*
X11507028Y5945181D02*
X11507028Y6945181D01*
X11507028Y6945181D02*
X11173695Y6945181D01*
X11173695Y6945181D02*
X11078457Y6897562D01*
X11078457Y6897562D02*
X11030838Y6849943D01*
X11030838Y6849943D02*
X10983219Y6754705D01*
X10983219Y6754705D02*
X10983219Y6659467D01*
X10983219Y6659467D02*
X11030838Y6564229D01*
X11030838Y6564229D02*
X11078457Y6516610D01*
X11078457Y6516610D02*
X11173695Y6468991D01*
X11173695Y6468991D02*
X11507028Y6468991D01*
X9745123Y5945181D02*
X9745123Y6945181D01*
X9745123Y6945181D02*
X9507028Y6945181D01*
X9507028Y6945181D02*
X9364171Y6897562D01*
X9364171Y6897562D02*
X9268933Y6802324D01*
X9268933Y6802324D02*
X9221314Y6707086D01*
X9221314Y6707086D02*
X9173695Y6516610D01*
X9173695Y6516610D02*
X9173695Y6373753D01*
X9173695Y6373753D02*
X9221314Y6183277D01*
X9221314Y6183277D02*
X9268933Y6088039D01*
X9268933Y6088039D02*
X9364171Y5992800D01*
X9364171Y5992800D02*
X9507028Y5945181D01*
X9507028Y5945181D02*
X9745123Y5945181D01*
X8364171Y5992800D02*
X8459409Y5945181D01*
X8459409Y5945181D02*
X8649885Y5945181D01*
X8649885Y5945181D02*
X8745123Y5992800D01*
X8745123Y5992800D02*
X8792742Y6088039D01*
X8792742Y6088039D02*
X8792742Y6468991D01*
X8792742Y6468991D02*
X8745123Y6564229D01*
X8745123Y6564229D02*
X8649885Y6611848D01*
X8649885Y6611848D02*
X8459409Y6611848D01*
X8459409Y6611848D02*
X8364171Y6564229D01*
X8364171Y6564229D02*
X8316552Y6468991D01*
X8316552Y6468991D02*
X8316552Y6373753D01*
X8316552Y6373753D02*
X8792742Y6278515D01*
X7935599Y5992800D02*
X7840361Y5945181D01*
X7840361Y5945181D02*
X7649885Y5945181D01*
X7649885Y5945181D02*
X7554647Y5992800D01*
X7554647Y5992800D02*
X7507028Y6088039D01*
X7507028Y6088039D02*
X7507028Y6135658D01*
X7507028Y6135658D02*
X7554647Y6230896D01*
X7554647Y6230896D02*
X7649885Y6278515D01*
X7649885Y6278515D02*
X7792742Y6278515D01*
X7792742Y6278515D02*
X7887980Y6326134D01*
X7887980Y6326134D02*
X7935599Y6421372D01*
X7935599Y6421372D02*
X7935599Y6468991D01*
X7935599Y6468991D02*
X7887980Y6564229D01*
X7887980Y6564229D02*
X7792742Y6611848D01*
X7792742Y6611848D02*
X7649885Y6611848D01*
X7649885Y6611848D02*
X7554647Y6564229D01*
X7078456Y5945181D02*
X7078456Y6611848D01*
X7078456Y6945181D02*
X7126075Y6897562D01*
X7126075Y6897562D02*
X7078456Y6849943D01*
X7078456Y6849943D02*
X7030837Y6897562D01*
X7030837Y6897562D02*
X7078456Y6945181D01*
X7078456Y6945181D02*
X7078456Y6849943D01*
X6173695Y6611848D02*
X6173695Y5802324D01*
X6173695Y5802324D02*
X6221314Y5707086D01*
X6221314Y5707086D02*
X6268933Y5659467D01*
X6268933Y5659467D02*
X6364171Y5611848D01*
X6364171Y5611848D02*
X6507028Y5611848D01*
X6507028Y5611848D02*
X6602266Y5659467D01*
X6173695Y5992800D02*
X6268933Y5945181D01*
X6268933Y5945181D02*
X6459409Y5945181D01*
X6459409Y5945181D02*
X6554647Y5992800D01*
X6554647Y5992800D02*
X6602266Y6040420D01*
X6602266Y6040420D02*
X6649885Y6135658D01*
X6649885Y6135658D02*
X6649885Y6421372D01*
X6649885Y6421372D02*
X6602266Y6516610D01*
X6602266Y6516610D02*
X6554647Y6564229D01*
X6554647Y6564229D02*
X6459409Y6611848D01*
X6459409Y6611848D02*
X6268933Y6611848D01*
X6268933Y6611848D02*
X6173695Y6564229D01*
X5697504Y6611848D02*
X5697504Y5945181D01*
X5697504Y6516610D02*
X5649885Y6564229D01*
X5649885Y6564229D02*
X5554647Y6611848D01*
X5554647Y6611848D02*
X5411790Y6611848D01*
X5411790Y6611848D02*
X5316552Y6564229D01*
X5316552Y6564229D02*
X5268933Y6468991D01*
X5268933Y6468991D02*
X5268933Y5945181D01*
X19983220Y4335237D02*
X19983220Y5335237D01*
X19983220Y5335237D02*
X19745125Y5335237D01*
X19745125Y5335237D02*
X19602268Y5287618D01*
X19602268Y5287618D02*
X19507030Y5192380D01*
X19507030Y5192380D02*
X19459411Y5097142D01*
X19459411Y5097142D02*
X19411792Y4906666D01*
X19411792Y4906666D02*
X19411792Y4763809D01*
X19411792Y4763809D02*
X19459411Y4573333D01*
X19459411Y4573333D02*
X19507030Y4478095D01*
X19507030Y4478095D02*
X19602268Y4382856D01*
X19602268Y4382856D02*
X19745125Y4335237D01*
X19745125Y4335237D02*
X19983220Y4335237D01*
X18602268Y4382856D02*
X18697506Y4335237D01*
X18697506Y4335237D02*
X18887982Y4335237D01*
X18887982Y4335237D02*
X18983220Y4382856D01*
X18983220Y4382856D02*
X19030839Y4478095D01*
X19030839Y4478095D02*
X19030839Y4859047D01*
X19030839Y4859047D02*
X18983220Y4954285D01*
X18983220Y4954285D02*
X18887982Y5001904D01*
X18887982Y5001904D02*
X18697506Y5001904D01*
X18697506Y5001904D02*
X18602268Y4954285D01*
X18602268Y4954285D02*
X18554649Y4859047D01*
X18554649Y4859047D02*
X18554649Y4763809D01*
X18554649Y4763809D02*
X19030839Y4668571D01*
X18173696Y4382856D02*
X18078458Y4335237D01*
X18078458Y4335237D02*
X17887982Y4335237D01*
X17887982Y4335237D02*
X17792744Y4382856D01*
X17792744Y4382856D02*
X17745125Y4478095D01*
X17745125Y4478095D02*
X17745125Y4525714D01*
X17745125Y4525714D02*
X17792744Y4620952D01*
X17792744Y4620952D02*
X17887982Y4668571D01*
X17887982Y4668571D02*
X18030839Y4668571D01*
X18030839Y4668571D02*
X18126077Y4716190D01*
X18126077Y4716190D02*
X18173696Y4811428D01*
X18173696Y4811428D02*
X18173696Y4859047D01*
X18173696Y4859047D02*
X18126077Y4954285D01*
X18126077Y4954285D02*
X18030839Y5001904D01*
X18030839Y5001904D02*
X17887982Y5001904D01*
X17887982Y5001904D02*
X17792744Y4954285D01*
X17316553Y4335237D02*
X17316553Y5001904D01*
X17316553Y5335237D02*
X17364172Y5287618D01*
X17364172Y5287618D02*
X17316553Y5239999D01*
X17316553Y5239999D02*
X17268934Y5287618D01*
X17268934Y5287618D02*
X17316553Y5335237D01*
X17316553Y5335237D02*
X17316553Y5239999D01*
X16411792Y5001904D02*
X16411792Y4192380D01*
X16411792Y4192380D02*
X16459411Y4097142D01*
X16459411Y4097142D02*
X16507030Y4049523D01*
X16507030Y4049523D02*
X16602268Y4001904D01*
X16602268Y4001904D02*
X16745125Y4001904D01*
X16745125Y4001904D02*
X16840363Y4049523D01*
X16411792Y4382856D02*
X16507030Y4335237D01*
X16507030Y4335237D02*
X16697506Y4335237D01*
X16697506Y4335237D02*
X16792744Y4382856D01*
X16792744Y4382856D02*
X16840363Y4430476D01*
X16840363Y4430476D02*
X16887982Y4525714D01*
X16887982Y4525714D02*
X16887982Y4811428D01*
X16887982Y4811428D02*
X16840363Y4906666D01*
X16840363Y4906666D02*
X16792744Y4954285D01*
X16792744Y4954285D02*
X16697506Y5001904D01*
X16697506Y5001904D02*
X16507030Y5001904D01*
X16507030Y5001904D02*
X16411792Y4954285D01*
X15935601Y5001904D02*
X15935601Y4335237D01*
X15935601Y4906666D02*
X15887982Y4954285D01*
X15887982Y4954285D02*
X15792744Y5001904D01*
X15792744Y5001904D02*
X15649887Y5001904D01*
X15649887Y5001904D02*
X15554649Y4954285D01*
X15554649Y4954285D02*
X15507030Y4859047D01*
X15507030Y4859047D02*
X15507030Y4335237D01*
X14649887Y4382856D02*
X14745125Y4335237D01*
X14745125Y4335237D02*
X14935601Y4335237D01*
X14935601Y4335237D02*
X15030839Y4382856D01*
X15030839Y4382856D02*
X15078458Y4478095D01*
X15078458Y4478095D02*
X15078458Y4859047D01*
X15078458Y4859047D02*
X15030839Y4954285D01*
X15030839Y4954285D02*
X14935601Y5001904D01*
X14935601Y5001904D02*
X14745125Y5001904D01*
X14745125Y5001904D02*
X14649887Y4954285D01*
X14649887Y4954285D02*
X14602268Y4859047D01*
X14602268Y4859047D02*
X14602268Y4763809D01*
X14602268Y4763809D02*
X15078458Y4668571D01*
X13745125Y4335237D02*
X13745125Y5335237D01*
X13745125Y4382856D02*
X13840363Y4335237D01*
X13840363Y4335237D02*
X14030839Y4335237D01*
X14030839Y4335237D02*
X14126077Y4382856D01*
X14126077Y4382856D02*
X14173696Y4430476D01*
X14173696Y4430476D02*
X14221315Y4525714D01*
X14221315Y4525714D02*
X14221315Y4811428D01*
X14221315Y4811428D02*
X14173696Y4906666D01*
X14173696Y4906666D02*
X14126077Y4954285D01*
X14126077Y4954285D02*
X14030839Y5001904D01*
X14030839Y5001904D02*
X13840363Y5001904D01*
X13840363Y5001904D02*
X13745125Y4954285D01*
X12507029Y4335237D02*
X12507029Y5335237D01*
X12507029Y4954285D02*
X12411791Y5001904D01*
X12411791Y5001904D02*
X12221315Y5001904D01*
X12221315Y5001904D02*
X12126077Y4954285D01*
X12126077Y4954285D02*
X12078458Y4906666D01*
X12078458Y4906666D02*
X12030839Y4811428D01*
X12030839Y4811428D02*
X12030839Y4525714D01*
X12030839Y4525714D02*
X12078458Y4430476D01*
X12078458Y4430476D02*
X12126077Y4382856D01*
X12126077Y4382856D02*
X12221315Y4335237D01*
X12221315Y4335237D02*
X12411791Y4335237D01*
X12411791Y4335237D02*
X12507029Y4382856D01*
X11697505Y5001904D02*
X11459410Y4335237D01*
X11221315Y5001904D02*
X11459410Y4335237D01*
X11459410Y4335237D02*
X11554648Y4097142D01*
X11554648Y4097142D02*
X11602267Y4049523D01*
X11602267Y4049523D02*
X11697505Y4001904D01*
X9459410Y4811428D02*
X9507029Y4859047D01*
X9507029Y4859047D02*
X9602267Y4906666D01*
X9602267Y4906666D02*
X9697505Y4906666D01*
X9697505Y4906666D02*
X9792743Y4859047D01*
X9792743Y4859047D02*
X9840362Y4811428D01*
X9840362Y4811428D02*
X9887981Y4716190D01*
X9887981Y4716190D02*
X9887981Y4620952D01*
X9887981Y4620952D02*
X9840362Y4525714D01*
X9840362Y4525714D02*
X9792743Y4478095D01*
X9792743Y4478095D02*
X9697505Y4430476D01*
X9697505Y4430476D02*
X9602267Y4430476D01*
X9602267Y4430476D02*
X9507029Y4478095D01*
X9507029Y4478095D02*
X9459410Y4525714D01*
X9459410Y4906666D02*
X9459410Y4525714D01*
X9459410Y4525714D02*
X9411791Y4478095D01*
X9411791Y4478095D02*
X9364172Y4478095D01*
X9364172Y4478095D02*
X9268933Y4525714D01*
X9268933Y4525714D02*
X9221314Y4620952D01*
X9221314Y4620952D02*
X9221314Y4859047D01*
X9221314Y4859047D02*
X9316553Y5001904D01*
X9316553Y5001904D02*
X9459410Y5097142D01*
X9459410Y5097142D02*
X9649886Y5144761D01*
X9649886Y5144761D02*
X9840362Y5097142D01*
X9840362Y5097142D02*
X9983219Y5001904D01*
X9983219Y5001904D02*
X10078457Y4859047D01*
X10078457Y4859047D02*
X10126076Y4668571D01*
X10126076Y4668571D02*
X10078457Y4478095D01*
X10078457Y4478095D02*
X9983219Y4335237D01*
X9983219Y4335237D02*
X9840362Y4239999D01*
X9840362Y4239999D02*
X9649886Y4192380D01*
X9649886Y4192380D02*
X9459410Y4239999D01*
X9459410Y4239999D02*
X9316553Y4335237D01*
X8887981Y5001904D02*
X8649886Y4335237D01*
X8411791Y5001904D02*
X8649886Y4335237D01*
X8649886Y4335237D02*
X8745124Y4097142D01*
X8745124Y4097142D02*
X8792743Y4049523D01*
X8792743Y4049523D02*
X8887981Y4001904D01*
X8030838Y4335237D02*
X8030838Y5001904D01*
X8030838Y5335237D02*
X8078457Y5287618D01*
X8078457Y5287618D02*
X8030838Y5239999D01*
X8030838Y5239999D02*
X7983219Y5287618D01*
X7983219Y5287618D02*
X8030838Y5335237D01*
X8030838Y5335237D02*
X8030838Y5239999D01*
X7554648Y4335237D02*
X7554648Y5335237D01*
X7459410Y4716190D02*
X7173696Y4335237D01*
X7173696Y5001904D02*
X7554648Y4620952D01*
X6745124Y5001904D02*
X6745124Y4144761D01*
X6745124Y4144761D02*
X6792743Y4049523D01*
X6792743Y4049523D02*
X6887981Y4001904D01*
X6887981Y4001904D02*
X6935600Y4001904D01*
X6745124Y5335237D02*
X6792743Y5287618D01*
X6792743Y5287618D02*
X6745124Y5239999D01*
X6745124Y5239999D02*
X6697505Y5287618D01*
X6697505Y5287618D02*
X6745124Y5335237D01*
X6745124Y5335237D02*
X6745124Y5239999D01*
X6268934Y4335237D02*
X6268934Y5001904D01*
X6268934Y5335237D02*
X6316553Y5287618D01*
X6316553Y5287618D02*
X6268934Y5239999D01*
X6268934Y5239999D02*
X6221315Y5287618D01*
X6221315Y5287618D02*
X6268934Y5335237D01*
X6268934Y5335237D02*
X6268934Y5239999D01*
X5792744Y5001904D02*
X5792744Y4335237D01*
X5792744Y4906666D02*
X5745125Y4954285D01*
X5745125Y4954285D02*
X5649887Y5001904D01*
X5649887Y5001904D02*
X5507030Y5001904D01*
X5507030Y5001904D02*
X5411792Y4954285D01*
X5411792Y4954285D02*
X5364173Y4859047D01*
X5364173Y4859047D02*
X5364173Y4335237D01*
X19411792Y2725293D02*
X19745125Y3201484D01*
X19983220Y2725293D02*
X19983220Y3725293D01*
X19983220Y3725293D02*
X19602268Y3725293D01*
X19602268Y3725293D02*
X19507030Y3677674D01*
X19507030Y3677674D02*
X19459411Y3630055D01*
X19459411Y3630055D02*
X19411792Y3534817D01*
X19411792Y3534817D02*
X19411792Y3391960D01*
X19411792Y3391960D02*
X19459411Y3296722D01*
X19459411Y3296722D02*
X19507030Y3249103D01*
X19507030Y3249103D02*
X19602268Y3201484D01*
X19602268Y3201484D02*
X19983220Y3201484D01*
X18602268Y2772912D02*
X18697506Y2725293D01*
X18697506Y2725293D02*
X18887982Y2725293D01*
X18887982Y2725293D02*
X18983220Y2772912D01*
X18983220Y2772912D02*
X19030839Y2868151D01*
X19030839Y2868151D02*
X19030839Y3249103D01*
X19030839Y3249103D02*
X18983220Y3344341D01*
X18983220Y3344341D02*
X18887982Y3391960D01*
X18887982Y3391960D02*
X18697506Y3391960D01*
X18697506Y3391960D02*
X18602268Y3344341D01*
X18602268Y3344341D02*
X18554649Y3249103D01*
X18554649Y3249103D02*
X18554649Y3153865D01*
X18554649Y3153865D02*
X19030839Y3058627D01*
X18221315Y3391960D02*
X17983220Y2725293D01*
X17983220Y2725293D02*
X17745125Y3391960D01*
X17364172Y2725293D02*
X17364172Y3391960D01*
X17364172Y3725293D02*
X17411791Y3677674D01*
X17411791Y3677674D02*
X17364172Y3630055D01*
X17364172Y3630055D02*
X17316553Y3677674D01*
X17316553Y3677674D02*
X17364172Y3725293D01*
X17364172Y3725293D02*
X17364172Y3630055D01*
X16935601Y2772912D02*
X16840363Y2725293D01*
X16840363Y2725293D02*
X16649887Y2725293D01*
X16649887Y2725293D02*
X16554649Y2772912D01*
X16554649Y2772912D02*
X16507030Y2868151D01*
X16507030Y2868151D02*
X16507030Y2915770D01*
X16507030Y2915770D02*
X16554649Y3011008D01*
X16554649Y3011008D02*
X16649887Y3058627D01*
X16649887Y3058627D02*
X16792744Y3058627D01*
X16792744Y3058627D02*
X16887982Y3106246D01*
X16887982Y3106246D02*
X16935601Y3201484D01*
X16935601Y3201484D02*
X16935601Y3249103D01*
X16935601Y3249103D02*
X16887982Y3344341D01*
X16887982Y3344341D02*
X16792744Y3391960D01*
X16792744Y3391960D02*
X16649887Y3391960D01*
X16649887Y3391960D02*
X16554649Y3344341D01*
X16078458Y2725293D02*
X16078458Y3391960D01*
X16078458Y3725293D02*
X16126077Y3677674D01*
X16126077Y3677674D02*
X16078458Y3630055D01*
X16078458Y3630055D02*
X16030839Y3677674D01*
X16030839Y3677674D02*
X16078458Y3725293D01*
X16078458Y3725293D02*
X16078458Y3630055D01*
X15459411Y2725293D02*
X15554649Y2772912D01*
X15554649Y2772912D02*
X15602268Y2820532D01*
X15602268Y2820532D02*
X15649887Y2915770D01*
X15649887Y2915770D02*
X15649887Y3201484D01*
X15649887Y3201484D02*
X15602268Y3296722D01*
X15602268Y3296722D02*
X15554649Y3344341D01*
X15554649Y3344341D02*
X15459411Y3391960D01*
X15459411Y3391960D02*
X15316554Y3391960D01*
X15316554Y3391960D02*
X15221316Y3344341D01*
X15221316Y3344341D02*
X15173697Y3296722D01*
X15173697Y3296722D02*
X15126078Y3201484D01*
X15126078Y3201484D02*
X15126078Y2915770D01*
X15126078Y2915770D02*
X15173697Y2820532D01*
X15173697Y2820532D02*
X15221316Y2772912D01*
X15221316Y2772912D02*
X15316554Y2725293D01*
X15316554Y2725293D02*
X15459411Y2725293D01*
X14697506Y3391960D02*
X14697506Y2725293D01*
X14697506Y3296722D02*
X14649887Y3344341D01*
X14649887Y3344341D02*
X14554649Y3391960D01*
X14554649Y3391960D02*
X14411792Y3391960D01*
X14411792Y3391960D02*
X14316554Y3344341D01*
X14316554Y3344341D02*
X14268935Y3249103D01*
X14268935Y3249103D02*
X14268935Y2725293D01*
X13126077Y3391960D02*
X12887982Y2725293D01*
X12887982Y2725293D02*
X12649887Y3391960D01*
X11745125Y2725293D02*
X12316553Y2725293D01*
X12030839Y2725293D02*
X12030839Y3725293D01*
X12030839Y3725293D02*
X12126077Y3582436D01*
X12126077Y3582436D02*
X12221315Y3487198D01*
X12221315Y3487198D02*
X12316553Y3439579D01*
X11316553Y2820532D02*
X11268934Y2772912D01*
X11268934Y2772912D02*
X11316553Y2725293D01*
X11316553Y2725293D02*
X11364172Y2772912D01*
X11364172Y2772912D02*
X11316553Y2820532D01*
X11316553Y2820532D02*
X11316553Y2725293D01*
X10649887Y3725293D02*
X10554649Y3725293D01*
X10554649Y3725293D02*
X10459411Y3677674D01*
X10459411Y3677674D02*
X10411792Y3630055D01*
X10411792Y3630055D02*
X10364173Y3534817D01*
X10364173Y3534817D02*
X10316554Y3344341D01*
X10316554Y3344341D02*
X10316554Y3106246D01*
X10316554Y3106246D02*
X10364173Y2915770D01*
X10364173Y2915770D02*
X10411792Y2820532D01*
X10411792Y2820532D02*
X10459411Y2772912D01*
X10459411Y2772912D02*
X10554649Y2725293D01*
X10554649Y2725293D02*
X10649887Y2725293D01*
X10649887Y2725293D02*
X10745125Y2772912D01*
X10745125Y2772912D02*
X10792744Y2820532D01*
X10792744Y2820532D02*
X10840363Y2915770D01*
X10840363Y2915770D02*
X10887982Y3106246D01*
X10887982Y3106246D02*
X10887982Y3344341D01*
X10887982Y3344341D02*
X10840363Y3534817D01*
X10840363Y3534817D02*
X10792744Y3630055D01*
X10792744Y3630055D02*
X10745125Y3677674D01*
X10745125Y3677674D02*
X10649887Y3725293D01*
X9887982Y2820532D02*
X9840363Y2772912D01*
X9840363Y2772912D02*
X9887982Y2725293D01*
X9887982Y2725293D02*
X9935601Y2772912D01*
X9935601Y2772912D02*
X9887982Y2820532D01*
X9887982Y2820532D02*
X9887982Y2725293D01*
X9221316Y3725293D02*
X9126078Y3725293D01*
X9126078Y3725293D02*
X9030840Y3677674D01*
X9030840Y3677674D02*
X8983221Y3630055D01*
X8983221Y3630055D02*
X8935602Y3534817D01*
X8935602Y3534817D02*
X8887983Y3344341D01*
X8887983Y3344341D02*
X8887983Y3106246D01*
X8887983Y3106246D02*
X8935602Y2915770D01*
X8935602Y2915770D02*
X8983221Y2820532D01*
X8983221Y2820532D02*
X9030840Y2772912D01*
X9030840Y2772912D02*
X9126078Y2725293D01*
X9126078Y2725293D02*
X9221316Y2725293D01*
X9221316Y2725293D02*
X9316554Y2772912D01*
X9316554Y2772912D02*
X9364173Y2820532D01*
X9364173Y2820532D02*
X9411792Y2915770D01*
X9411792Y2915770D02*
X9459411Y3106246D01*
X9459411Y3106246D02*
X9459411Y3344341D01*
X9459411Y3344341D02*
X9411792Y3534817D01*
X9411792Y3534817D02*
X9364173Y3630055D01*
X9364173Y3630055D02*
X9316554Y3677674D01*
X9316554Y3677674D02*
X9221316Y3725293D01*
%LPC*%
D11*
%TO.C,J1*%
X6175000Y10035000D03*
X2375000Y10035000D03*
X6175000Y1395000D03*
X2375000Y1395000D03*
%TD*%
%LPD*%
M02*
